<?xml version="1.0" encoding="utf-8"?>
<!-- Generator: Adobe Illustrator 22.1.0, SVG Export Plug-In . SVG Version: 6.00 Build 0)  -->
<svg version="1.1" id="Layer_1" xmlns="http://www.w3.org/2000/svg" xmlns:xlink="http://www.w3.org/1999/xlink" x="0px" y="0px"
	 viewBox="0 0 349 347" style="enable-background:new 0 0 349 347;" xml:space="preserve">
<style type="text/css">
	.st0{fill:url(#SVGID_1_);}
	.st1{fill:#FFFFFF;}
	.st2{font-family:'AvenueX-Regular';}
	.st3{font-size:180.2486px;}
	.st4{fill:url(#SVGID_2_);}
	.st5{fill:none;stroke:#FFFFFF;stroke-width:1.1;stroke-miterlimit:10;}
	.st6{fill:none;stroke:url(#SVGID_3_);stroke-width:1.1;stroke-miterlimit:10;}
	.st7{fill:none;stroke:url(#SVGID_4_);stroke-width:1.1;stroke-miterlimit:10;}
</style>
<linearGradient id="SVGID_1_" gradientUnits="userSpaceOnUse" x1="175.2229" y1="6.7097" x2="175.2229" y2="336.7097">
	<stop  offset="0" style="stop-color:#F15F5E"/>
	<stop  offset="1" style="stop-color:#7F3F98"/>
</linearGradient>
<circle class="st0" cx="175.2" cy="171.7" r="165"/>
<text transform="matrix(1.008 0 0 1 86.9027 287.6951)" class="st1 st2 st3">U</text>
<path class="st1" d="M215.6,287.7c-5.3,0-9.5-4.3-9.5-9.5V148.3c0-5.3,4.3-9.5,9.5-9.5s9.5,4.3,9.5,9.5v129.9
	C225.2,283.4,220.9,287.7,215.6,287.7z"/>
<path class="st1" d="M215.6,138.7v149c5.3,0,9.5-4.3,9.5-9.5V148.3C225.2,143,220.9,138.7,215.6,138.7z"/>
<path class="st1" d="M215.6,157.8c-30.2,0-54.9-24.6-54.9-54.9c0-30.2,24.6-54.9,54.9-54.9s54.9,24.6,54.9,54.9
	S245.9,157.8,215.6,157.8z"/>
<linearGradient id="SVGID_2_" gradientUnits="userSpaceOnUse" x1="175.2229" y1="104.6108" x2="254.2366" y2="104.6108">
	<stop  offset="0" style="stop-color:#F15F5E"/>
	<stop  offset="1" style="stop-color:#7F3F98"/>
</linearGradient>
<path class="st4" d="M196.1,133.4c-14.8-14-14.8-37,0-51.2c11.6-11,30.3-11,41.9,0c4.3,4.1,6.7,9.6,6.7,15.2s-2.4,11.2-6.7,15.2
	c-6.7,6.3-17.6,6.3-24.3,0c-4.9-4.7-4.9-12.4,0-17.1c1.9-1.8,1.9-4.7,0-6.5c-1.9-1.8-4.9-1.8-6.9,0c-8.8,8.3-8.8,21.7,0,30.1
	c10.5,10,27.5,10,38,0c6-5.7,9.4-13.4,9.4-21.7s-3.4-15.8-9.4-21.7c-15.2-14.4-40.1-14.4-55.6,0c-14.4,13.6-17.6,33.9-9.9,50.6
	c8.4,10.2,21,16.9,35.2,18.1C207.9,142.1,201.4,138.5,196.1,133.4z"/>
<line class="st5" x1="110.9" y1="162.1" x2="110.9" y2="105.7"/>
<line class="st5" x1="114.2" y1="162" x2="114.2" y2="105.6"/>
<rect x="94.1" y="104.6" class="st1" width="14" height="57.4"/>
<linearGradient id="SVGID_3_" gradientUnits="userSpaceOnUse" x1="219.6949" y1="158.7735" x2="219.6949" y2="280.6158">
	<stop  offset="0" style="stop-color:#F15F5E"/>
	<stop  offset="1" style="stop-color:#7F3F98"/>
</linearGradient>
<line class="st6" x1="219.7" y1="280.6" x2="219.7" y2="158.8"/>
<linearGradient id="SVGID_4_" gradientUnits="userSpaceOnUse" x1="222.7366" y1="158.7735" x2="222.7366" y2="280.6158">
	<stop  offset="0" style="stop-color:#F15F5E"/>
	<stop  offset="1" style="stop-color:#7F3F98"/>
</linearGradient>
<line class="st7" x1="222.7" y1="280.6" x2="222.7" y2="158.8"/>
</svg>
